<?xml version="1.0" encoding="utf-8"?>
<!-- Generator: Adobe Illustrator 24.1.0, SVG Export Plug-In . SVG Version: 6.00 Build 0)  -->
<svg version="1.1" id="Logo" xmlns="http://www.w3.org/2000/svg" xmlns:xlink="http://www.w3.org/1999/xlink" x="0px" y="0px"
	 viewBox="0 0 792 171.5" style="enable-background:new 0 0 792 171.5;" xml:space="preserve">
<style type="text/css">
	.st0{fill:#FFFFFF;}
	.st1{fill-rule:evenodd;clip-rule:evenodd;fill:#FFFFFF;}
	.st2{fill-rule:evenodd;clip-rule:evenodd;fill:#98002E;}
</style>
<g>
	<path class="st0" d="M176.4,71.1h10l19.2,30.9h0.1V71.1h9.5v46h-10.1L186,86.3h-0.1v30.8h-9.5V71.1z M219.5,100.5
		c0,10.6,6.8,17.5,17.2,17.5c10.5,0,17.3-7,17.3-17.5c0-10.6-6.8-17.6-17.3-17.6C226.3,82.9,219.5,89.9,219.5,100.5z M228.7,100.5
		c0-5.3,1.9-10.7,8.1-10.7c6.2,0,8.1,5.3,8.1,10.7c0,5.3-1.9,10.6-8.1,10.6C230.6,111.1,228.7,105.8,228.7,100.5z M258,117.1h9.1
		v-15c0-5.9,2.3-10.7,9-10.7c1.1,0,2.4,0.1,3.3,0.3v-8.5c-0.6-0.2-1.4-0.3-2-0.3c-4.4,0-9,2.9-10.6,7.1h-0.1v-6.2H258V117.1z
		 M296,73.8h-9.1v10h-5.5v6.1h5.5v19.6c0,6.6,4.9,7.9,10.5,7.9c1.8,0,3.8-0.1,5.3-0.3V110c-1,0.2-1.9,0.3-2.8,0.3
		c-3.1,0-3.9-0.8-3.9-3.9V89.9h6.7v-6.1H296V73.8z M305.1,117.1h9.1V99.7c0-6.8,2.1-9.5,7.1-9.5c4.3,0,5.9,2.7,5.9,8.2v18.8h9.1
		V96.6c0-8.2-2.4-13.7-12.2-13.7c-3.4,0-7.4,1.8-9.7,5.5h-0.2V71.1h-9.1V117.1z M358.2,117.1h10.1v-46h-10.1V117.1z M397.5,117.1
		h8.7v-46h-9.1v16.8h-0.1h0.1c-2.1-3.3-6-5-9.9-5c-9.8,0-14.8,8.3-14.8,17.3c0,9.2,4.9,17.8,14.9,17.8c4.3,0,8-1.5,10.1-5.2h0.1
		V117.1z M397.4,100.4c0,5.5-1.8,10.8-7.9,10.8c-5.7,0-8.1-5.5-8.1-10.7c0-5.5,2.1-10.6,8.1-10.6C395.5,89.8,397.4,95,397.4,100.4z
		 M419.9,94.1c0.3-3.6,2.6-5,6.1-5c3.2,0,5.9,0.6,5.9,4.5c0,3.7-5.2,3.5-10.8,4.4c-5.7,0.8-11.3,2.6-11.3,10.1c0,6.8,5,10,11.3,10
		c4.1,0,8.3-1.1,11.2-4.1c0.1,1.1,0.3,2.2,0.6,3.2h9.3c-0.8-1.4-1.2-4.4-1.2-7.4V92.4c0-8-8-9.5-14.6-9.5c-7.5,0-15.1,2.6-15.7,11.1
		H419.9z M431.9,104.2c0,2-0.3,7.7-7.4,7.7c-3,0-5.6-0.8-5.6-4.3c0-3.3,2.6-4.3,5.4-4.9c2.8-0.5,6.1-0.6,7.6-1.9V104.2z
		 M446.2,117.1h9.1V99.7c0-6.8,2.1-9.5,7.1-9.5c4.3,0,5.9,2.7,5.9,8.2v18.8h9.1V96.6c0-8.2-2.4-13.7-12.2-13.7
		c-3.4,0-7.4,1.8-9.7,5.5h-0.2V71.1h-9.1V117.1z M481.4,100.5c0,10.6,6.8,17.5,17.2,17.5c10.5,0,17.3-7,17.3-17.5
		c0-10.6-6.8-17.6-17.3-17.6C488.1,82.9,481.4,89.9,481.4,100.5z M490.5,100.5c0-5.3,1.9-10.7,8.1-10.7c6.2,0,8.1,5.3,8.1,10.7
		c0,5.3-1.9,10.6-8.1,10.6C492.4,111.1,490.5,105.8,490.5,100.5z M577.2,86.6C575.9,76,567.4,70,557.3,70
		c-14.2,0-22.6,10.6-22.6,24.3c0,13.3,8.4,23.9,22.6,23.9c11.3,0,19.2-7.3,20.2-18.8h-9.8c-0.8,6.1-4.3,10.3-10.4,10.3
		c-9.1,0-12.5-7.7-12.5-15.4c0-8.1,3.4-15.8,12.5-15.8c5,0,9.4,3.5,10,8.1H577.2z M581.2,100.5c0,10.6,6.8,17.5,17.2,17.5
		c10.5,0,17.3-7,17.3-17.5c0-10.6-6.8-17.6-17.3-17.6C587.9,82.9,581.2,89.9,581.2,100.5z M590.3,100.5c0-5.3,1.9-10.7,8.1-10.7
		c6.2,0,8.1,5.3,8.1,10.7c0,5.3-1.9,10.6-8.1,10.6C592.2,111.1,590.3,105.8,590.3,100.5z M619.9,117.1h9.1v-46h-9.1V117.1z
		 M634.6,117.1h9.1v-46h-9.1V117.1z M680.7,102.7c0.6-10.2-4.8-19.8-16.2-19.8c-10.1,0-17,7.6-17,17.6c0,10.3,6.5,17.5,17,17.5
		c7.5,0,13-3.3,15.6-11.2H672c-0.6,2.1-3.5,4.3-7.2,4.3c-5.1,0-7.9-2.6-8.2-8.4H680.7z M656.6,96.9c0.1-2.6,1.8-7.1,7.6-7.1
		c4.4,0,6.4,2.4,7.3,7.1H656.6z M716.1,83.8h-8.7v4.4h-0.1c-2.2-3.9-5.5-5.3-9.9-5.3c-9.3,0-14.3,7.9-14.3,16.5
		c0,9.1,4.3,16.8,14.2,16.8c4,0,8-1.7,10-5.2h0.1v4.4c0.1,4.8-2.3,8.2-7.3,8.2c-3.2,0-6-1.2-6.8-4.6h-9.1
		c0.5,7.6,8.1,10.7,14.7,10.7c15.3,0,17.3-9.3,17.3-14.8V83.8z M699.6,109.3c-5.6,0-7.4-5.2-7.4-10c0-5,2.3-9.5,7.4-9.5
		c5.9,0,7.8,4.8,7.8,10.2C707.4,104.8,704.9,109.3,699.6,109.3z M753.1,102.7c0.6-10.2-4.8-19.8-16.2-19.8c-10.1,0-17,7.6-17,17.6
		c0,10.3,6.5,17.5,17,17.5c7.5,0,13-3.3,15.6-11.2h-8.1c-0.6,2.1-3.5,4.3-7.2,4.3c-5.1,0-7.9-2.6-8.2-8.4H753.1z M729.1,96.9
		c0.1-2.6,1.8-7.1,7.6-7.1c4.4,0,6.4,2.4,7.3,7.1H729.1z"/>
	<g>
		<path class="st1" d="M162.2,130.4H42.5L84.3,59l7.2,10.8l15.9-26.9L162.2,130.4z"/>
		<path class="st2" d="M42.5,130.4L84.3,59l7.2,10.8l15.9-26.9l50.6,80.7c-13.9-1.4-19.9-6.1-41.1,0.1c-10.2,3-20.4,1.7-25.4,0.3
			c-9.7-2.7-20.4-3.5-28.8-3.2c0,0,2.8-2.7,9.8-2.7h78.8l-43.9-70L91.5,74.9l-7.2-10.8l-35.5,60.9c9.5-3.5,25.7-3.8,42.7,0.9
			c5,1.4,15.2,2.7,25.4-0.3c21.8-6.3,27.4-1.3,42.1,0l0.3,0l2.9,4.7H42.5z M107.8,78.3c1.7,2.6-0.8,5.4-2.9,7.2c0.9,0.4,1,0.6,1.9,1
			c-0.4,3.3-2.9,6.3-4.8,7.7c0.9,0.4,1,0.6,1.9,1c-0.5,3.2-1.8,4.7-3.4,6.8c0.8,0.5,1,0.6,1.9,1c-1.2,2.5-2.8,3.7-4.8,5.3
			c0.5,0.5,0.9,1.3,0.9,1.3s-3.2,2.3-5.9,3c0.6,1.2,1.1,2.1,1.1,2.1s-2.4,1.2-3.8,1.5h44.8c-2.8-0.8-7.8-3.1-4.8-4.1
			c-2.5-1-6.5-5.3-6.8-8.2c0.6-0.4,1-0.8,1.4-1.4c-3-1.2-5.5-5.5-6.8-8.2c0.7-0.5,1.2-0.7,1.9-1c-2.3-3.1-5.6-5.8-2.4-8.7
			c-2.3-1.1-5.5-5.5-3.9-7.7c-1.6-1.7-2.3-2.7-2.9-4.8C110.6,75.1,109.7,76.7,107.8,78.3z M90,90.8c-0.8,1.5-1.4,2.5-2.9,3.4
			c1.3,2.7,0.3,4.1-2.4,5.8c0.6,0.9,1,1.3,1.4,2.4c-2.6,1.9-3.8,3.4-6.7,4.8c0.8,0.5,1,0.6,1.9,1c-0.8,2-3.1,3.5-4.8,4.3
			c0.4,2.1-1.8,3.1-3.9,3.6c8.1,0,15.4,0.6,19.7-2.1c-0.4-1.3-0.9-2-0.9-2s4.2-1.3,5.8-2.8c-0.4-0.8-0.9-1.4-0.9-1.4
			s4.4-2.7,4.7-4.7c-1.7-0.5-8.1-4.8-5.8-5.6c-1.7-1.3-3.8-3-2.4-4.8c-1.5-1.3-2-2.6-2.4-4.3C90.4,89.5,90.4,90,90,90.8z"/>
	</g>
</g>
</svg>
